<?xml version="1.0" standalone="no"?>
<!DOCTYPE svg PUBLIC "-//W3C//DTD SVG 20010904//EN"
 "http://www.w3.org/TR/2001/REC-SVG-20010904/DTD/svg10.dtd">
<svg version="1.0" xmlns="http://www.w3.org/2000/svg"
 width="260.000000pt" height="260.000000pt" viewBox="0 0 260.000000 260.000000"
 preserveAspectRatio="xMidYMid meet">
<metadata>
Created by potrace 1.11, written by Peter Selinger 2001-2013
</metadata>
<g transform="translate(0.000000,260.000000) scale(0.100000,-0.100000)"
fill="#000000" stroke="none">
<path d="M1246 2243 c-181 -616 -486 -1665 -486 -1673 0 -7 27 -10 76 -8 l77
3 56 195 56 195 270 0 269 0 55 -197 56 -198 77 0 c43 0 78 3 78 8 0 4 -112
385 -248 847 l-248 840 -41 3 c-33 2 -42 -1 -47 -15z m165 -749 c60 -209 109
-384 109 -387 0 -4 -101 -7 -225 -7 -148 0 -225 4 -225 10 0 6 50 184 110 395
61 211 111 392 111 402 1 10 4 7 6 -7 3 -14 54 -196 114 -406z"/>
</g>
</svg>
